<svg width="86" height="86" viewBox="0 0 86 86" fill="none" xmlns="http://www.w3.org/2000/svg">
<rect width="86" height="86" rx="23" fill="black"/>
<path d="M45.7793 16C50.0797 16 53.9183 16.8013 57.2695 18.4326C60.6185 20.0629 63.2466 22.3703 65.1211 25.3564H65.1201C67.0466 28.298 68 31.6678 68 35.4326V49.4219C67.9999 53.1892 67.0448 56.5816 65.1201 59.5693C63.2449 62.5566 60.594 64.8881 57.2012 66.5654L57.1953 66.5674C53.8456 68.1979 50.0326 69 45.7793 69H28.5371C27.3407 69 26.2698 68.6388 25.3848 67.8887L25.3701 67.876L25.3555 67.8623C24.4642 67.044 24 66.0005 24 64.7939V20.2061C24 19.0246 24.4216 17.9969 25.2812 17.2109L25.4512 17.0615C26.3128 16.3436 27.3619 16 28.5371 16H45.7793ZM32.9268 61.0254H45.042C49.6062 61.0254 53.0337 59.9694 55.4502 57.9824C57.8454 55.965 59.0732 53.1779 59.0732 49.4941V35.3604C59.0732 31.7295 57.8492 28.9939 55.459 27.0244C53.0421 25.0329 49.6116 23.9746 45.042 23.9746H32.9268V61.0254Z" fill="white" stroke="white" stroke-width="2"/>
</svg>
